<svg xmlns="http://www.w3.org/2000/svg" width="74.142" height="74.142" viewBox="0 0 74.142 74.142">
  <g id="Icon_ionic-md-speedometer" data-name="Icon ionic-md-speedometer" transform="translate(-3.375 -3.375)">
    <path id="Path_106" data-name="Path 106" d="M9,29.25H54.626V37.8H9Z" transform="translate(8.633 39.712)" fill="#3727f5"/>
    <path id="Path_107" data-name="Path 107" d="M26.579,32.282A5.7,5.7,0,1,0,25.011,21.09L13.123,12.41l-.713.624,8.715,11.888a5.563,5.563,0,0,0-.25,1.657A5.7,5.7,0,0,0,26.579,32.282Z" transform="translate(13.867 13.867)" fill="#3727f5"/>
    <path id="Path_108" data-name="Path 108" d="M40.446,3.375A37.062,37.062,0,0,0,11.235,63.259h10.48l.713-.713,3.939-3.939-4.081-4.081-3.939,3.921A28.408,28.408,0,0,1,12.072,43.3h5.561v-5.7H12.072a28.408,28.408,0,0,1,6.274-15.149l3.939,3.921,4.081-4.081-3.921-3.939a28.408,28.408,0,0,1,15.149-6.274v5.561h5.7V12.072a28.408,28.408,0,0,1,15.149,6.274l-3.921,3.939,4.081,4.081,3.939-3.921a28.408,28.408,0,0,1,6.274,15.149H63.259v5.7h5.561a28.408,28.408,0,0,1-6.274,15.149l-3.939-3.921-4.081,4.081,3.939,3.939.713.713h10.48A37.062,37.062,0,0,0,40.446,3.375Z" fill="#3727f5"/>
  </g>
</svg>
