<svg id="Icon_awesome-wind" data-name="Icon awesome-wind" xmlns="http://www.w3.org/2000/svg" width="74.019" height="64.756" viewBox="0 0 74.019 64.756">
  <path id="Icon_awesome-wind-2" data-name="Icon awesome-wind" d="M22.653,34.629H2.313A2.32,2.32,0,0,0,0,36.942v4.626a2.32,2.32,0,0,0,2.313,2.313H22.87A4.829,4.829,0,0,1,27.7,47.726a4.633,4.633,0,0,1-8.963,2.241,2.284,2.284,0,0,0-2.2-1.46H11.8a2.3,2.3,0,0,0-2.3,2.66,13.879,13.879,0,0,0,27.38-4.481C36,39.689,29.693,34.629,22.653,34.629ZM2.313,30H50.886A13.881,13.881,0,1,0,37.268,13.48a2.279,2.279,0,0,0,2.284,2.645h4.742a2.27,2.27,0,0,0,2.2-1.46,4.633,4.633,0,0,1,8.963,2.241,4.817,4.817,0,0,1-4.828,3.845H2.313A2.32,2.32,0,0,0,0,23.064V27.69A2.32,2.32,0,0,0,2.313,30Zm55.512,4.626H35.23a18.273,18.273,0,0,1,5.754,9.252H57.825a6.939,6.939,0,1,1-6.014,10.351,2.393,2.393,0,0,0-2.1-1.1H44.829a2.316,2.316,0,0,0-2.212,3.05A16.172,16.172,0,1,0,57.825,34.629Z" transform="translate(0 -2.253)" fill="#147cd5"/>
</svg>
